<svg height="449pt" viewBox="-155 0 449 449.647" width="449pt" xmlns="http://www.w3.org/2000/svg"><path d="m44.035156 257.5c1.367188 4.285156 3.140625 8.429688 5.285156 12.382812 5.691407 10.324219 13.089844 16.246094 20.300782 16.246094 7.214844 0 14.609375-5.921875 20.300781-16.246094 2.148437-3.949218 3.917969-8.09375 5.289063-12.375-6.402344-5.757812-15.683594-9.109374-25.585938-9.109374-9.90625 0-19.191406 3.347656-25.589844 9.101562zm0 0"/><path d="m69.617188 164.46875c-7.210938 0-14.609376 5.921875-20.300782 16.246094-6.5 11.792968-10.078125 27.628906-10.078125 44.585937-.003906 5.804688.4375 11.605469 1.316407 17.347657 17.816406-11 40.3125-11 58.128906 0 .878906-5.742188 1.316406-11.539063 1.3125-17.34375 0-16.957032-3.582032-32.792969-10.078125-44.585938-5.691407-10.328125-13.085938-16.25-20.300781-16.25zm0 0"/><path d="m101.265625 25.742188c-3.085937-14.992188-16.285156-25.74609425-31.585937-25.742188-15.453126.300781-28.78125 11.105469-31.703126 25.703125l-34.265624 164.84375c-4.523438 21.414063-4.515626 45.09375.019531 68.410156l34.238281 164.769531c3.066406 15.050782 16.285156 25.878907 31.648438 25.921876h.125c15.308593-.164063 28.433593-10.972657 31.53125-25.964844l34.25-164.898438c4.523437-21.414062 4.515624-45.046875-.019532-68.363281zm-40.648437 28.90625h17c3.867187 0 7 3.132812 7 7 0 3.863281-3.132813 7-7 7h-17c-3.867188 0-7-3.136719-7-7 0-3.867188 3.132812-7 7-7zm49.542968 201.566406c-.070312.890625-.304687 1.765625-.703125 2.566406-7.171875 24.707031-22.140625 41.347656-39.839843 41.347656-24.882813 0-44.375-32.871094-44.375-74.828125 0-41.960937 19.492187-74.832031 44.375-74.832031 24.882812 0 44.375 32.871094 44.375 74.832031.046874 10.425781-1.242188 20.8125-3.832032 30.914063zm0 0"/></svg>